<svg width="32" height="32" viewBox="0 0 32 32" fill="none" xmlns="http://www.w3.org/2000/svg">
<g clip-path="url(#clip0_2_3035)">
<rect width="32" height="32" fill="white"/>
<rect x="1.6" y="1.59998" width="28.8" height="28.8" rx="14.4" fill="#FDE0D1"/>
<rect x="6.00039" y="5.99841" width="20" height="20" rx="1" fill="#DCE1EB"/>
<rect x="12.0004" y="5.99841" width="14" height="20" rx="1" fill="#F2F6FC"/>
<rect x="7.00039" y="7.99841" width="4" height="4" rx="1" fill="#59C230"/>
<rect x="7.00039" y="13.9984" width="4" height="4" rx="1" fill="#59C230"/>
<rect x="7.00039" y="19.9984" width="4" height="4" rx="1" fill="#59C230"/>
<rect x="13.0004" y="7.99841" width="4" height="4" rx="1" fill="#8DD470"/>
<rect x="13.0004" y="13.9984" width="4" height="4" rx="1" fill="#FF6E80"/>
<rect x="19.0004" y="13.9984" width="4" height="4" rx="1" fill="#8DD470"/>
<rect x="19.0004" y="19.9984" width="4" height="4" rx="1" fill="#8DD470"/>
<rect x="13.0004" y="19.9984" width="4" height="4" rx="1" fill="#FF6E80"/>
<rect x="19.0004" y="7.99841" width="4" height="4" rx="1" fill="#8DD470"/>
<rect width="1.33774" height="0.612093" rx="0.306047" transform="matrix(0.657854 0.753145 -0.812745 0.58262 8.49844 9.31091)" fill="white"/>
<rect width="1.84628" height="0.608965" rx="0.304482" transform="matrix(0.697907 -0.716188 0.780967 0.624573 8.59219 10.3187)" fill="white"/>
<rect width="1.33774" height="0.612093" rx="0.306047" transform="matrix(0.657854 0.753145 -0.812745 0.58262 14.4984 9.31091)" fill="white"/>
<rect width="1.84628" height="0.608965" rx="0.304482" transform="matrix(0.697907 -0.716188 0.780967 0.624573 14.5922 10.3187)" fill="white"/>
<rect width="1.33774" height="0.612093" rx="0.306047" transform="matrix(0.657854 0.753145 -0.812745 0.58262 20.4984 9.31091)" fill="white"/>
<rect width="1.84628" height="0.608965" rx="0.304482" transform="matrix(0.697907 -0.716188 0.780967 0.624573 20.5922 10.3187)" fill="white"/>
<rect width="1.33774" height="0.612093" rx="0.306047" transform="matrix(0.657854 0.753145 -0.812745 0.58262 20.4984 15.3109)" fill="white"/>
<rect width="1.84628" height="0.608965" rx="0.304482" transform="matrix(0.697907 -0.716188 0.780967 0.624573 20.5922 16.3187)" fill="white"/>
<rect width="2.53698" height="0.612093" rx="0.306047" transform="matrix(0.71834 0.695692 -0.761355 0.648335 14.4066 15.0492)" fill="white"/>
<rect width="2.57509" height="0.608965" rx="0.304482" transform="matrix(0.709989 -0.704213 0.770229 0.637767 14.0727 16.8226)" fill="white"/>
<rect width="2.53698" height="0.612093" rx="0.306047" transform="matrix(0.71834 0.695692 -0.761355 0.648335 14.4066 21.0375)" fill="white"/>
<rect width="2.57509" height="0.608965" rx="0.304482" transform="matrix(0.709989 -0.704213 0.770229 0.637767 14.0727 22.8109)" fill="white"/>
<rect width="1.33774" height="0.612093" rx="0.306047" transform="matrix(0.657854 0.753145 -0.812745 0.58262 20.4984 21.3109)" fill="white"/>
<rect width="1.84628" height="0.608965" rx="0.304482" transform="matrix(0.697907 -0.716188 0.780967 0.624573 20.5922 22.3187)" fill="white"/>
<rect width="1.33774" height="0.612093" rx="0.306047" transform="matrix(0.657854 0.753145 -0.812745 0.58262 8.49844 15.3109)" fill="white"/>
<rect width="1.84628" height="0.608965" rx="0.304482" transform="matrix(0.697907 -0.716188 0.780967 0.624573 8.59219 16.3187)" fill="white"/>
<rect width="1.33774" height="0.612093" rx="0.306047" transform="matrix(0.657854 0.753145 -0.812745 0.58262 8.49844 21.3109)" fill="white"/>
<rect width="1.84628" height="0.608965" rx="0.304482" transform="matrix(0.697907 -0.716188 0.780967 0.624573 8.59219 22.3187)" fill="white"/>
<circle cx="21.0004" cy="21.9984" r="7" fill="#106AE8"/>
<ellipse cx="20.5004" cy="21.9984" rx="6.5" ry="7" fill="#6DB2F8"/>
<circle cx="21.0004" cy="22.9984" r="3.95" fill="url(#paint0_linear_2_3035)" stroke="url(#paint1_linear_2_3035)" stroke-width="0.1"/>
<circle cx="25.0004" cy="22.9984" r="1" fill="url(#paint2_linear_2_3035)"/>
<circle cx="17.0004" cy="22.9984" r="1" fill="url(#paint3_linear_2_3035)"/>
<path d="M21.0004 18.9984C18.5171 19.3428 17.7491 20.0362 17.0004 21.9984L17.0244 22.002C18.8244 22.2708 19.438 22.3624 21.0004 20.9984C22.311 22.177 23.2274 22.3271 25.0004 21.9984C23.8268 19.8815 22.9847 19.1296 21.0004 18.9984Z" fill="#7A5401" stroke="#7A5401" stroke-width="0.1"/>
<path d="M24.0004 18.9992C23.6592 19.0295 23.3294 19.5062 23.0004 19.9992C23.1738 20.285 23.2888 20.37 23.5004 20.4992C23.2414 19.8747 24.3416 18.9688 24.0004 18.9992Z" fill="#7A5401" stroke="#7A5401" stroke-width="0.1"/>
<path d="M20.0004 24.9984C20.712 25.4678 21.133 25.4319 22.0004 24.9984" stroke="#495560" stroke-width="0.5" stroke-linecap="round"/>
<line x1="22.2504" y1="23.2484" x2="22.2504" y2="23.7484" stroke="#495560" stroke-width="0.5" stroke-linecap="round"/>
<line x1="19.2504" y1="23.2484" x2="19.2504" y2="23.7484" stroke="#495560" stroke-width="0.5" stroke-linecap="round"/>
<circle cx="31.2" cy="20.8" r="0.8" fill="url(#paint4_linear_2_3035)"/>
<circle cx="28.8" cy="1.59999" r="0.8" fill="url(#paint5_linear_2_3035)"/>
<circle cx="3.2" cy="5.59999" r="0.8" fill="url(#paint6_linear_2_3035)"/>
<circle cx="1.6" cy="28.8" r="0.8" fill="url(#paint7_linear_2_3035)"/>
</g>
<defs>
<linearGradient id="paint0_linear_2_3035" x1="21.0004" y1="18.9984" x2="21.0004" y2="26.9984" gradientUnits="userSpaceOnUse">
<stop offset="1" stop-color="#FCE5D2"/>
</linearGradient>
<linearGradient id="paint1_linear_2_3035" x1="21.0004" y1="18.9984" x2="21.0004" y2="26.9984" gradientUnits="userSpaceOnUse">
<stop offset="1" stop-color="#FDDDC2"/>
</linearGradient>
<linearGradient id="paint2_linear_2_3035" x1="25.0004" y1="21.9984" x2="25.0004" y2="23.9984" gradientUnits="userSpaceOnUse">
<stop offset="1" stop-color="#FCE5D2"/>
</linearGradient>
<linearGradient id="paint3_linear_2_3035" x1="17.0004" y1="21.9984" x2="17.0004" y2="23.9984" gradientUnits="userSpaceOnUse">
<stop offset="1" stop-color="#FCE5D2"/>
</linearGradient>
<linearGradient id="paint4_linear_2_3035" x1="31.2373" y1="21.9627" x2="32.2982" y2="19.7033" gradientUnits="userSpaceOnUse">
<stop stop-color="#1BA30F"/>
<stop offset="1" stop-color="#D6FFD8"/>
</linearGradient>
<linearGradient id="paint5_linear_2_3035" x1="29.0169" y1="2.75332" x2="30.4273" y2="1.3892" gradientUnits="userSpaceOnUse">
<stop stop-color="#FFC90A"/>
<stop offset="1" stop-color="white"/>
</linearGradient>
<linearGradient id="paint6_linear_2_3035" x1="2.3551" y1="4.95171" x2="4.13527" y2="5.05282" gradientUnits="userSpaceOnUse">
<stop stop-color="#0674E8"/>
<stop offset="0.570041" stop-color="#0674E8" stop-opacity="0.224915"/>
<stop offset="1" stop-color="#0674E8" stop-opacity="0"/>
</linearGradient>
<linearGradient id="paint7_linear_2_3035" x1="1.6" y1="29.6" x2="1.6" y2="28" gradientUnits="userSpaceOnUse">
<stop stop-color="#EDB63B"/>
<stop offset="1" stop-color="#EDB63B" stop-opacity="0"/>
</linearGradient>
<clipPath id="clip0_2_3035">
<rect width="32" height="32" fill="white"/>
</clipPath>
</defs>
</svg>
