<svg width="32" height="32" viewBox="0 0 32 32" fill="none" xmlns="http://www.w3.org/2000/svg">
<g clip-path="url(#clip0_2_2725)">
<rect width="32" height="32" fill="white"/>
<g clip-path="url(#clip1_2_2725)">
<rect x="1.6" y="1.60001" width="28.8" height="28.8" rx="14.4" fill="#FDE0D1"/>
<path d="M5.31922 10.0633C5.11385 10.0428 4.70311 10.1495 4.70311 10.7408V20.4101L6.11987 19.3015C6.18146 19.24 6.3539 19.1784 6.55099 19.4247L6.85893 19.24C6.92817 19.3834 7.03197 19.575 7.16687 19.7962C7.45428 19.4055 8.01679 18.4147 7.96752 17.5771C7.90593 16.5301 7.90593 15.8122 8.27546 14.7281C8.57109 13.8608 8.89135 13.5561 9.01452 13.5122L9.26088 13.3597L10.1089 12.8348L10.3079 12.7116C10.5542 12.9884 10.7267 13.7792 9.44564 14.7281V15.1751C9.79464 14.9082 10.5173 14.3745 10.6158 14.3745V10.0633H5.31922Z" fill="#368ECC"/>
<path d="M9.26088 22.1962L9.23624 22.2578C9.44975 22.4015 9.85213 22.7135 9.75359 22.8121L8.82976 23.9207H19.9157L19.2998 21.6419C19.2013 21.4448 19.6283 21.3134 19.8541 21.2724V21.026C19.9374 21.0177 20.0195 21.0076 20.1004 20.996L19.7309 20.4101H10.6158V20.287C10.2217 20.484 9.38406 21.5104 9.01452 21.9989C9.09498 22.0666 9.17712 22.1325 9.26088 22.1962Z" fill="#368ECC"/>
<path d="M26.1361 23.9207C26.3619 23.9207 26.8134 23.7975 26.8134 23.3048V10.6176C26.8134 10.4328 26.6781 10.0633 26.1361 10.0633H21.5786V14.5841C21.7354 14.8472 21.8975 15.2364 22.0169 15.791C22.1409 16.0175 22.2343 16.3021 22.2771 16.4685C22.4472 16.5787 22.6054 16.6821 22.7487 16.7764C22.8966 17.1213 22.564 17.2486 22.3792 17.2691L22.2771 17.2038C22.2906 17.9193 22.3792 19.4809 22.6256 20.0034C22.6995 19.9492 22.7614 19.8993 22.8103 19.8558L22.8719 19.9482C23.0567 19.8353 23.4509 19.6464 23.5494 19.7943C23.6479 19.9421 25.1096 22.6068 25.8282 23.9207H26.1361Z" fill="#368ECC"/>
<path d="M14.1877 24.6595V29.3402H11.0467V30.2641H20.4082V29.3402H17.2672V24.6595H26.8134C27.0392 24.5979 27.4908 24.3762 27.4908 23.982V9.8783C27.4292 9.71406 27.2198 9.38559 26.8749 9.38559H21.5786V10.0633H26.1361C26.6781 10.0633 26.8134 10.4328 26.8134 10.6176V23.3048C26.8134 23.7975 26.3619 23.9207 26.1361 23.9207H25.8282H19.9157H8.82976H5.4424C4.80188 23.9207 4.68266 23.5511 4.70311 23.3664V20.4101V10.7408C4.70311 10.1495 5.11385 10.0428 5.31922 10.0633H10.6158V9.38559H4.70311C4.49782 9.36506 4.07491 9.52109 4.02564 10.3094C3.97637 11.0978 4.00511 19.7531 4.02564 23.9823C4.02571 24.208 4.2599 24.6595 5.19604 24.6595H14.1877Z" fill="#202020"/>
<path d="M4.70311 23.3664C4.68266 23.5511 4.80188 23.9207 5.4424 23.9207H8.82976L9.75359 22.8121C9.65504 22.9106 9.30194 22.6478 9.1377 22.5041C8.52658 22.1986 7.16577 21.225 6.30463 19.6629C6.24006 19.5457 6.1783 19.4253 6.11987 19.3015L4.70311 20.4101V23.3664Z" fill="#434343"/>
<path d="M23.0567 20.2254C21.5293 21.1122 20.2852 21.4571 19.8541 21.5187L19.2998 21.6419L19.9157 23.9207H25.8282C25.1096 22.6068 23.6479 19.9421 23.5494 19.7943C23.5001 19.8435 23.2004 20.1022 23.0567 20.2254Z" fill="#3D3D3D"/>
<path d="M18.376 17.9466C18.4252 18.4393 19.2998 19.7943 19.7309 20.4101L20.1004 20.996C21.2648 20.8285 22.1723 20.3354 22.6256 20.0034C22.3792 19.4809 22.2906 17.9193 22.2771 17.2038L19.9734 15.7294L20.0389 16.4685C19.7301 16.7552 19.4674 16.635 19.2586 16.3453C19.2183 16.2894 19.18 16.2273 19.1438 16.1605C18.9482 15.7999 18.8125 15.3049 18.7455 14.9435L18.4088 14.7281C18.469 14.8653 18.5714 15.1468 18.4991 15.1751C18.4088 15.2105 18.0174 15.791 17.5808 15.1135C17.6194 15.3355 17.6585 15.5746 17.6369 15.791C17.5753 16.4069 18.3144 17.3307 18.376 17.9466Z" fill="#E6C79B"/>
<path d="M17.7601 13.2659C17.4152 13.2659 17.4969 13.5179 17.5808 13.644C17.7911 13.7538 18.0167 13.8766 18.2528 14.0087C18.3685 14.0223 18.5964 14.021 18.8071 13.9501C19.0509 14.1121 19.6254 14.4237 19.9734 14.3745C20.1184 14.5182 20.4946 14.8179 20.8395 14.8672L20.1273 15.1135C20.9058 15.5899 21.6679 16.0736 22.2771 16.4685C22.2343 16.3021 22.1409 16.0175 22.0169 15.791C21.9421 15.6543 21.8561 15.5387 21.7633 15.4831C21.549 15.3544 21.3644 14.6588 21.1474 14.1232C21.0527 13.8894 20.9518 13.6861 20.8395 13.5738C20.47 13.2043 18.1912 13.2659 17.7601 13.2659Z" fill="#E6C79B"/>
<path d="M21.1474 14.1232C21.3644 14.6588 21.549 15.3544 21.7633 15.4831C21.8561 15.5387 21.9421 15.6543 22.0169 15.791C21.8975 15.2364 21.7354 14.8472 21.5786 14.5841C21.4084 14.2987 21.2443 14.1618 21.1474 14.1232Z" fill="#E6C79B"/>
<path d="M20.0389 16.4685L19.9734 15.7294L19.7309 15.5742V15.9758L19.2586 16.3453C19.4674 16.635 19.7301 16.7552 20.0389 16.4685Z" fill="#EFB96C"/>
<path d="M18.8071 13.9501C18.5964 14.021 18.3685 14.0223 18.2528 14.0087C18.4127 14.0983 18.5775 14.1922 18.7455 14.2893C19.1046 14.3117 19.8351 14.4783 19.8842 14.9654C19.9653 15.0146 20.0464 15.064 20.1273 15.1135L20.8395 14.8672C20.4946 14.8179 20.1184 14.5182 19.9734 14.3745C19.6254 14.4237 19.0509 14.1121 18.8071 13.9501Z" fill="#EFB96C"/>
<path d="M19.2586 16.3453L19.7309 15.9758V15.5742L19.4846 15.4165V15.791L19.1438 16.1605C19.18 16.2273 19.2183 16.2894 19.2586 16.3453Z" fill="#E6C79B"/>
<path d="M18.4088 14.7281L17.7601 14.3129C17.4405 14.3528 17.5096 14.7038 17.5808 15.1135C18.0174 15.791 18.4088 15.2105 18.4991 15.1751C18.5714 15.1468 18.469 14.8653 18.4088 14.7281Z" fill="#D0D0D0"/>
<path fill-rule="evenodd" clip-rule="evenodd" d="M7.16687 19.7962C7.45428 19.4055 8.01679 18.4147 7.96752 17.5771C7.90593 16.5301 7.90593 15.8122 8.27546 14.7281C8.57109 13.8608 8.89135 13.5561 9.01452 13.5122L9.26088 13.3597C9.38406 13.5132 9.67968 13.7586 9.87676 13.5122C10.0738 13.2659 10.1136 12.9579 10.1089 12.8348L10.3079 12.7116C10.5542 12.9884 10.7267 13.7792 9.44564 14.7281V15.1751C9.79464 14.9082 10.5173 14.3745 10.6158 14.3745V15.4831C10.5337 15.5241 10.4406 15.8156 10.342 15.9142L10.5481 15.7751L10.6158 15.7294V20.287C10.2217 20.484 9.38406 21.5104 9.01452 21.9989C8.19685 21.3102 7.55386 20.431 7.16687 19.7962ZM10.3616 18.2545C10.3123 18.4616 10.2348 18.668 10.1231 18.8704L10.3616 18.2545Z" fill="#E6C79B"/>
<path d="M9.26088 13.3597C9.38406 13.5132 9.67968 13.7586 9.87676 13.5122C10.0738 13.2659 10.1136 12.9579 10.1089 12.8348L9.26088 13.3597Z" fill="#EFEFEF"/>
<path d="M6.85893 19.24L6.55099 19.4247L6.30463 19.6629C7.16577 21.225 8.52658 22.1986 9.1377 22.5041L9.23624 22.2578L9.26088 22.1962C9.17712 22.1325 9.09498 22.0666 9.01452 21.9989C8.19685 21.3102 7.55386 20.431 7.16687 19.7962C7.03197 19.575 6.92817 19.3834 6.85893 19.24Z" fill="white"/>
<path d="M19.8541 21.5187C20.2852 21.4571 21.5293 21.1122 23.0567 20.2254L22.8719 19.9482L22.8103 19.8558C22.7614 19.8993 22.6995 19.9492 22.6256 20.0034C22.1723 20.3354 21.2648 20.8285 20.1004 20.996C20.0195 21.0076 19.9374 21.0177 19.8541 21.026V21.2724V21.5187Z" fill="white"/>
<path d="M22.3792 17.2691C22.564 17.2486 22.8966 17.1213 22.7487 16.7764C22.6054 16.6821 22.4472 16.5787 22.2771 16.4685C21.6679 16.0736 20.9058 15.5899 20.1273 15.1135C20.0464 15.064 19.9653 15.0146 19.8842 14.9654C19.4998 14.732 19.1148 14.5028 18.7455 14.2893C18.5775 14.1922 18.4127 14.0983 18.2528 14.0087C18.0167 13.8766 17.7911 13.7538 17.5808 13.644C17.1172 13.4018 16.7282 13.2223 16.4667 13.1427C16.8773 13.4917 17.7108 14.2143 17.7601 14.3129L18.4088 14.7281L18.7455 14.9435L19.4846 15.4165L19.7309 15.5742L19.9734 15.7294L22.2771 17.2038L22.3792 17.2691Z" fill="#5DC700"/>
<path fill-rule="evenodd" clip-rule="evenodd" d="M10.6158 6.92227V9.38559V10.0633V14.3745V15.4831V15.7294V20.287V20.4101H19.7309C19.2998 19.7943 18.4252 18.4393 18.376 17.9466C18.3144 17.3307 17.5753 16.4069 17.6369 15.791C17.6585 15.5746 17.6194 15.3355 17.5808 15.1135C17.5096 14.7038 17.4405 14.3528 17.7601 14.3129C17.7108 14.2143 16.8773 13.4917 16.4667 13.1427C16.7282 13.2223 17.1172 13.4018 17.5808 13.644C17.4969 13.5179 17.4152 13.2659 17.7601 13.2659C18.1912 13.2659 20.47 13.2043 20.8395 13.5738C20.9518 13.6861 21.0527 13.8894 21.1474 14.1232C21.2443 14.1618 21.4084 14.2987 21.5786 14.5841V10.0633V9.38559V6.92227H10.6158ZM14.8038 9.57057V8.8931H20.1273V9.57057H14.8038ZM14.8038 10.6792V10.0017H20.1273V10.6792H14.8038ZM14.8038 11.7878V11.1103H20.1273V11.7878H14.8038ZM14.8038 13.0195V12.3421H20.1273V13.0195H14.8038ZM11.8476 16.2517V15.5742H17.1711V16.2517H11.8476ZM11.8476 17.3603V16.6828H17.1711V17.3603H11.8476ZM11.8476 18.4689V17.7914H17.1711V18.4689C15.0921 18.4689 13.9265 18.4689 11.8476 18.4689Z" fill="white"/>
<path d="M14.8038 8.8931V9.57057H20.1273V8.8931H14.8038Z" fill="#62B200"/>
<path d="M14.8038 10.0017V10.6792H20.1273V10.0017H14.8038Z" fill="#159409"/>
<path d="M14.8038 11.1103V11.7878H20.1273V11.1103H14.8038Z" fill="#019D54"/>
<path d="M14.8038 12.3421V13.0195H20.1273V12.3421H14.8038Z" fill="#005C1C"/>
<path d="M11.8476 15.5742V16.2517H17.1711V15.5742H11.8476Z" fill="#368ECC"/>
<path d="M11.8476 16.6828V17.3603H17.1711V16.6828H11.8476Z" fill="#368ECC"/>
<path d="M11.8476 17.7914V18.4689H17.1711V17.7914H11.8476Z" fill="#3C617B"/>
<path d="M10.6158 15.4831C10.5337 15.5241 10.4406 15.8156 10.342 15.9142L10.5481 15.7751C10.5762 15.7488 10.5998 15.7294 10.6158 15.7294V15.4831Z" fill="#368ECC"/>
<circle cx="12.7784" cy="10.5193" r="0.461924" fill="#D9D9D9"/>
<path d="M13.6034 11.5494C13.5339 11.3747 13.411 11.2263 13.2522 11.1256C13.0935 11.0248 12.907 10.9767 12.7193 10.9881C12.5316 10.9996 12.3523 11.0699 12.207 11.1892C12.0617 11.3085 11.9577 11.4707 11.9099 11.6525L12.7736 11.8795L13.6034 11.5494Z" fill="#D9D9D9"/>
<circle cx="12.7434" cy="10.4361" r="0.978122" stroke="#7EA9CA"/>
</g>
<circle cx="31.2" cy="20.8" r="0.8" fill="url(#paint0_linear_2_2725)"/>
<circle cx="28.8" cy="1.6" r="0.8" fill="url(#paint1_linear_2_2725)"/>
<circle cx="3.2" cy="5.6" r="0.8" fill="url(#paint2_linear_2_2725)"/>
<circle cx="1.6" cy="28.8" r="0.8" fill="url(#paint3_linear_2_2725)"/>
</g>
<defs>
<linearGradient id="paint0_linear_2_2725" x1="31.2373" y1="21.9627" x2="32.2982" y2="19.7033" gradientUnits="userSpaceOnUse">
<stop stop-color="#1BA30F"/>
<stop offset="1" stop-color="#D6FFD8"/>
</linearGradient>
<linearGradient id="paint1_linear_2_2725" x1="29.0169" y1="2.75334" x2="30.4273" y2="1.38922" gradientUnits="userSpaceOnUse">
<stop stop-color="#FFC90A"/>
<stop offset="1" stop-color="white"/>
</linearGradient>
<linearGradient id="paint2_linear_2_2725" x1="2.3551" y1="4.95173" x2="4.13527" y2="5.05284" gradientUnits="userSpaceOnUse">
<stop stop-color="#0674E8"/>
<stop offset="0.570041" stop-color="#0674E8" stop-opacity="0.224915"/>
<stop offset="1" stop-color="#0674E8" stop-opacity="0"/>
</linearGradient>
<linearGradient id="paint3_linear_2_2725" x1="1.6" y1="29.6" x2="1.6" y2="28" gradientUnits="userSpaceOnUse">
<stop stop-color="#EDB63B"/>
<stop offset="1" stop-color="#EDB63B" stop-opacity="0"/>
</linearGradient>
<clipPath id="clip0_2_2725">
<rect width="32" height="32" fill="white"/>
</clipPath>
<clipPath id="clip1_2_2725">
<rect x="1.6" y="1.60001" width="28.8" height="28.8" rx="14.4" fill="white"/>
</clipPath>
</defs>
</svg>
