<svg width="32" height="32" viewBox="0 0 32 32" fill="none" xmlns="http://www.w3.org/2000/svg">
<rect width="32" height="32" fill="white"/>
<rect x="1.59375" y="1.59961" width="28.8" height="28.8" rx="14.4" fill="#FDE0D1"/>
<path d="M5 7C5 6.44772 5.44772 6 6 6H25C25.5523 6 26 6.44772 26 7V19C26 24.5228 21.5228 29 16 29H15C9.47715 29 5 24.5228 5 19V7Z" fill="#D3DCFB"/>
<path d="M5 7C5 6.44772 5.44772 6 6 6H25C25.5523 6 26 6.44772 26 7V9H5V7Z" fill="#3C58A0"/>
<path d="M5 7C5 6.44772 5.44772 6 6 6H13V9H5V7Z" fill="#2A428C"/>
<path d="M5 9H26V11H5V9Z" fill="#E9EFFF"/>
<circle cx="6.5" cy="7.5" r="0.5" fill="#F15F53"/>
<circle cx="8.5" cy="7.5" r="0.5" fill="#FFE56C"/>
<circle cx="10.5" cy="7.5" r="0.5" fill="#67EA95"/>
<path d="M12 7.5C12 7.22386 12.2239 7 12.5 7H21.5C21.7761 7 22 7.22386 22 7.5C22 7.77614 21.7761 8 21.5 8H12.5C12.2239 8 12 7.77614 12 7.5Z" fill="#1C2E7A"/>
<rect x="23" y="7" width="2" height="1" rx="0.5" fill="#1C2E7A"/>
<path d="M5 9H11C11 10.1046 10.1046 11 9 11H5V9Z" fill="#4FABF7"/>
<ellipse cx="15.5" cy="20.5" rx="9.5" ry="8.5" fill="#E9EFFF"/>
<path d="M18.0004 23.5664C17.8427 23.2232 17.4869 22.8563 17.5004 22.0664C17.1387 22.709 16.7455 22.8539 16 23.0664C15.2646 22.941 14.8202 22.814 14.5 22.0664C14.3193 22.7672 14.0507 23.091 13.5 23.5664C15.4207 25.4582 16.5577 25.2813 18.5004 23.5664C18.2721 23.6333 18.1047 23.616 18.0004 23.5664Z" fill="#FCAD6D" stroke="#FCAD6D" stroke-width="0.3" stroke-linecap="round"/>
<path d="M12.5 18.5812C12.6467 17.9771 12.9326 17.982 13.5 18.0812L13.4998 20.0664C13.1757 20.025 13.065 19.9161 13 19.5664C12.5903 19.1365 12.5378 18.9331 12.5 18.5812Z" fill="#FCAD6D" stroke="#FDA863" stroke-width="0.1" stroke-linecap="round"/>
<path d="M19.5 18.5763C19.1754 17.8832 18.9159 17.9027 18.5 18.0763V20.0664C18.788 20.182 18.8407 20.0305 19 19.5664C19.1602 19.4807 19.3632 19.3415 19.5 18.5763Z" fill="#FCAD6D" stroke="#FDA863" stroke-width="0.1" stroke-linecap="round"/>
<path d="M16.0564 16.0711C14.2144 15.1992 13.7273 15.6288 13.5564 17.5711C13.2215 18.6769 13.2624 19.3416 13.5564 20.5664C13.983 21.9925 14.3411 22.5405 16.0564 23.0664C18.1688 22.1912 18.5963 21.0068 18.5564 17.5664C18.3263 15.7093 17.7668 15.163 16.0564 16.0711Z" fill="#FCAD6D" stroke="#FDA863" stroke-width="0.1" stroke-linecap="round"/>
<path d="M19 18.0664C18.7351 18.0719 18.6641 18.0785 18.5 18.0664C18.3844 15.6559 17.7856 15.0626 16 16.0664C14.3368 15.0957 13.837 15.658 13.5 18.0664H13V16.5664C13.0126 16.0462 13.1171 15.838 13.5 15.5684C14.1606 14.2729 14.7066 13.8905 16.5 14.0684C17.9524 14.1765 19.4462 15.2763 19 18.0664Z" fill="#1C2E7A" stroke="#1C2E7A" stroke-width="0.3" stroke-linecap="round"/>
<path d="M23 25.8291C18.5005 30 13 30 8.5 26.3291C8.91918 25.0944 9.7683 24.8168 11.5005 24.5664C11.9906 24.0999 12.2749 23.8447 13.5005 23.5664C15.6123 25.4686 16.6435 25.2913 18.5005 23.5664C19.2226 23.6283 19.6771 23.9869 20.5005 24.5706C21.5799 24.2804 23.11 25.0074 23 25.8291Z" fill="#3C58A0" stroke="#3C58A0" stroke-width="0.3" stroke-linecap="round"/>
<path d="M15.9968 14.0307C15.7663 14.7674 15.6005 15.1696 15.9968 16.0307C15.2799 16.8761 15.86 17.4361 15.9921 18.0307C15.4494 20.1322 14.8473 20.9447 16.989 22.5307C16.6659 22.9345 16.4976 23.0714 15.9921 23.0307C14.98 24.7163 11.994 24.5307 11.994 26.0307C11.8614 27.2627 11.8919 27.8907 12.494 28.5307C11.0138 27.9685 10.1949 27.6366 9 26.5307C9.37454 25.1816 10.0001 24.7293 11.5 24.5307C12.0872 23.9819 12.5872 23.7971 13.5 23.5307C13.9915 23.0558 14.199 22.7135 14.5 22.0273C14.5 22.0273 13.7914 21.8376 13.5 20.0273C13.2004 20.1076 13.0087 20.0353 13 19.5273C12.5243 18.79 12.3185 18.4108 13 18.0273C12.7634 16.8165 12.7155 16.1711 13.5 15.5307C14.2071 14.1903 14.6973 13.8927 15.9968 14.0307Z" fill="black" fill-opacity="0.1"/>
<ellipse cx="22.1367" cy="24.1426" rx="3.12712" ry="3.13266" transform="rotate(-0.175838 22.1367 24.1426)" fill="#00C99F"/>
<rect width="2.19613" height="0.826963" rx="0.413482" transform="matrix(0.747101 0.66471 -0.701453 0.712716 20.8516 23.8887)" fill="white"/>
<rect width="3.90509" height="0.83687" rx="0.418435" transform="matrix(0.562424 -0.826849 0.85184 0.523802 21.4531 25.4941)" fill="white"/>
<circle cx="28.8" cy="27.2004" r="0.8" fill="url(#paint0_linear_5511_30900)"/>
<circle cx="28.8" cy="1.60078" r="0.8" fill="url(#paint1_linear_5511_30900)"/>
<circle cx="3.20625" cy="5.60078" r="0.8" fill="url(#paint2_linear_5511_30900)"/>
<circle cx="1.59687" cy="28.8" r="0.8" fill="url(#paint3_linear_5511_30900)"/>
<defs>
<linearGradient id="paint0_linear_5511_30900" x1="28.8373" y1="28.3631" x2="29.8982" y2="26.1037" gradientUnits="userSpaceOnUse">
<stop stop-color="#1BA30F"/>
<stop offset="1" stop-color="#D6FFD8"/>
</linearGradient>
<linearGradient id="paint1_linear_5511_30900" x1="29.0169" y1="2.75411" x2="30.4273" y2="1.39" gradientUnits="userSpaceOnUse">
<stop stop-color="#FFC90A"/>
<stop offset="1" stop-color="white"/>
</linearGradient>
<linearGradient id="paint2_linear_5511_30900" x1="2.36135" y1="4.95251" x2="4.14152" y2="5.05362" gradientUnits="userSpaceOnUse">
<stop stop-color="#0674E8"/>
<stop offset="0.570041" stop-color="#0674E8" stop-opacity="0.224915"/>
<stop offset="1" stop-color="#0674E8" stop-opacity="0"/>
</linearGradient>
<linearGradient id="paint3_linear_5511_30900" x1="1.59687" y1="29.6" x2="1.59687" y2="28" gradientUnits="userSpaceOnUse">
<stop stop-color="#EDB63B"/>
<stop offset="1" stop-color="#EDB63B" stop-opacity="0"/>
</linearGradient>
</defs>
</svg>
