<svg width="121" height="101" viewBox="0 0 121 101" fill="none" xmlns="http://www.w3.org/2000/svg">
<g opacity="0.35">
<path d="M9.27731 82.8553C16.6677 88.2252 29.5529 91.173 37.4445 84.5093C40.6315 81.8197 42.4866 77.8009 41.6789 73.5454C40.6574 68.1711 35.1 68.3348 32.8933 73.1821C29.2696 81.1449 33.8376 92.3583 40.1141 97.0455C43.7391 99.7612 48.4673 100.49 52.4411 97.8158" stroke="#E91E21" stroke-width="1.34375" stroke-miterlimit="10" stroke-dasharray="3.36 3.36"/>
</g>
<path d="M38.1903 70.6256C37.3328 68.9228 37.1143 66.969 37.5744 65.1189C37.6888 64.6719 37.8811 64.1885 38.2995 63.991C38.4128 63.9313 38.5442 63.9156 38.6685 63.9469C38.7615 63.9907 38.843 64.0555 38.9065 64.1362C38.9701 64.217 39.0141 64.3114 39.0349 64.412C39.3779 65.4515 39.1648 66.5716 38.8504 67.6111C38.5359 68.6506 38.4424 69.4692 38.1903 70.6256Z" fill="#C3ECFE"/>
<path d="M41.4199 74.0472C40.5311 72.4271 40.1944 70.5614 40.4609 68.7328C40.5259 68.2755 40.6558 67.7713 41.0015 67.514C41.09 67.4406 41.204 67.4051 41.3185 67.4153C41.4926 67.4465 41.6018 67.6362 41.672 67.8181C42.0488 68.777 41.95 69.9179 41.7603 70.9859C41.5706 72.054 41.5498 72.8726 41.4199 74.0472Z" fill="#C3ECFE"/>
<path d="M86.3578 91.9208C86.3578 92.5185 74.783 93.0018 60.5056 93.0018C46.2281 93.0018 34.6533 92.5185 34.6533 91.9208C34.6533 91.323 46.2281 90.8423 60.5056 90.8423C74.783 90.8423 86.3578 91.3256 86.3578 91.9208Z" fill="#6F052C"/>
<path d="M60.9972 16.6758C60.3079 16.6758 59.6469 16.9496 59.1596 17.4369C58.6722 17.9243 58.3984 18.5853 58.3984 19.2745V22.6009H63.5959V19.2745C63.5959 18.5853 63.3221 17.9243 62.8348 17.4369C62.3474 16.9496 61.6864 16.6758 60.9972 16.6758ZM60.9972 20.7584C60.6112 20.7584 60.241 20.6051 59.9681 20.3322C59.6952 20.0592 59.5419 19.6891 59.5419 19.3031C59.5419 18.9171 59.6952 18.547 59.9681 18.2741C60.241 18.0011 60.6112 17.8478 60.9972 17.8478C61.1883 17.8478 61.3775 17.8855 61.5541 17.9586C61.7307 18.0317 61.8911 18.1389 62.0262 18.2741C62.1614 18.4092 62.2686 18.5696 62.3417 18.7462C62.4148 18.9228 62.4525 19.112 62.4525 19.3031C62.4525 19.4942 62.4148 19.6835 62.3417 19.86C62.2686 20.0366 62.1614 20.197 62.0262 20.3322C61.8911 20.4673 61.7307 20.5745 61.5541 20.6476C61.3775 20.7208 61.1883 20.7584 60.9972 20.7584Z" fill="#E8505B"/>
<g opacity="0.45">
<path d="M62.4522 19.3031C62.4522 19.112 62.4145 18.9227 62.3414 18.7462C62.2682 18.5696 62.161 18.4092 62.0259 18.274C61.8908 18.1389 61.7303 18.0317 61.5538 17.9586C61.3772 17.8854 61.188 17.8478 60.9969 17.8478C60.9237 17.8494 60.8507 17.8564 60.7786 17.8686C60.9576 17.7661 61.1624 17.7173 61.3685 17.7282C61.7544 17.7282 62.1246 17.8816 62.3975 18.1545C62.6705 18.4274 62.8238 18.7976 62.8238 19.1835C62.8238 19.9138 62.4522 20.3088 61.8908 20.4517C62.0585 20.3093 62.195 20.1337 62.2916 19.9361C62.3882 19.7384 62.4428 19.5229 62.4522 19.3031ZM59.1959 22.263V18.9366C59.1831 18.5142 59.2763 18.0952 59.4669 17.718C59.6576 17.3408 59.9396 17.0173 60.2874 16.7771C59.7456 16.9321 59.2689 17.2589 58.929 17.7085C58.5892 18.158 58.4047 18.7058 58.4033 19.2693V22.5957H63.6008V22.263H59.1959Z" fill="#B03D44"/>
</g>
<path d="M82.423 22.7671H38.5849C37.187 22.7671 36.0537 23.9003 36.0537 25.2983V89.3779C36.0537 90.7758 37.187 91.9091 38.5849 91.9091H82.423C83.8209 91.9091 84.9541 90.7758 84.9541 89.3779V25.2983C84.9541 23.9003 83.8209 22.7671 82.423 22.7671Z" fill="#E91E21"/>
<path d="M80.7785 25.4814H40.2334C39.4913 25.4814 38.8896 26.0831 38.8896 26.8252V87.8561C38.8896 88.5983 39.4913 89.1999 40.2334 89.1999H80.7785C81.5206 89.1999 82.1222 88.5983 82.1222 87.8561V26.8252C82.1222 26.0831 81.5206 25.4814 80.7785 25.4814Z" fill="#F15F53"/>
<path d="M78.9098 27.1562H41.6885C40.9463 27.1562 40.3447 27.7579 40.3447 28.5V85.638C40.3447 86.3801 40.9463 86.9818 41.6885 86.9818H78.9098C79.6519 86.9818 80.2535 86.3802 80.2535 85.638V28.5C80.2535 27.7579 79.6519 27.1562 78.9098 27.1562Z" fill="white"/>
<path d="M64.344 44.0789H57.1582C57.1582 44.0789 59.072 47.8831 60.8215 47.8831C62.5711 47.8831 64.344 44.0789 64.344 44.0789Z" fill="#FDE0D1"/>
<path d="M54.9039 44.0785H47.5529C47.4055 44.0785 47.2873 44.1882 47.2773 44.3353C47.1897 45.6242 46.8332 51.4794 47.2954 55.3503C47.5539 57.5151 47.6765 58.7508 48.2817 60.8453C48.6054 61.9654 48.802 62.5945 49.268 63.6633C49.8191 64.9272 50.6767 66.4808 50.9588 66.763C51.2409 67.0452 54.8154 66.281 57.1583 65.4949C58.631 65.0008 59.4633 64.6987 60.8216 63.945C61.8624 63.3675 63.358 62.3956 63.3577 62.2543C63.3574 62.113 58.2857 61.1275 57.1586 60.7048C55.685 60.1522 54.4815 59.1549 53.9176 58.45C53.3537 57.7452 52.5089 55.9143 52.368 55.3507C52.2271 54.7871 52.2271 49.2921 52.2268 49.0099C52.2267 48.8745 53.5037 50.7858 55.3269 52.6736C57.3019 54.7187 60.2583 56.7593 60.8216 56.7593C61.3849 56.7593 64.3419 54.7189 66.3169 52.6736C68.1399 50.7858 69.2756 49.0158 69.2757 49.1512C69.276 49.4334 69.2757 52.9554 68.9936 55.3503C68.845 56.6119 68.5018 57.2799 68.0074 58.45C67.4707 59.7202 67.1376 60.4419 66.3166 61.5498C65.6444 62.4569 65.1854 62.9104 64.344 63.6633C63.1043 64.7725 62.2991 65.2941 60.8216 66.0585C59.4602 66.7629 58.6319 67.0457 57.1583 67.4675C55.1232 68.05 51.8041 68.3129 51.8041 68.3129L53.0722 70.0036L54.6221 71.6944L57.1583 73.8079L60.8216 76.2031L64.344 73.8079L66.7393 71.6944L68.2891 70.0036L69.9799 67.7493L71.6707 64.9313L73.0797 61.5498L73.7841 58.45L74.2068 55.3503L74.3443 44.3528C74.3462 44.2002 74.2294 44.0739 74.0768 44.0683C72.7629 44.0204 67.0963 43.8293 66.5984 44.0785C66.0348 44.3606 63.2168 49.9966 60.681 49.9966C58.1451 49.9966 55.3266 44.0785 54.9039 44.0785Z" fill="#FDE0D1"/>
<path d="M76.2328 23.9126V26.5114H44.7881V23.9126C44.7881 23.4302 44.9797 22.9675 45.3209 22.6263C45.662 22.2852 46.1247 22.0935 46.6072 22.0935H74.4137C74.8961 22.0935 75.3588 22.2852 75.7 22.6263C76.0411 22.9675 76.2328 23.4302 76.2328 23.9126Z" fill="#E8505B"/>
<path opacity="0.45" d="M76.2328 25.8617V26.5114H44.7881V23.9126C44.7881 23.4302 44.9797 22.9675 45.3209 22.6263C45.662 22.2852 46.1247 22.0935 46.6072 22.0935H46.8671C46.3423 22.5861 46.0331 23.266 46.0069 23.9854V25.8669L76.2328 25.8617Z" fill="#B03D44"/>
<g opacity="0.15">
<path d="M51.6201 37.917H77.5789" stroke="#0964AF" stroke-width="0.810806" stroke-linecap="round" stroke-linejoin="round"/>
<path d="M51.6201 35.8906H77.5789" stroke="#0964AF" stroke-width="0.810806" stroke-linecap="round" stroke-linejoin="round"/>
<path d="M51.6201 33.875H77.5789" stroke="#0964AF" stroke-width="0.810806" stroke-linecap="round" stroke-linejoin="round"/>
<path d="M51.6201 39.9846H67.2749" stroke="#0964AF" stroke-width="0.810806" stroke-linecap="round" stroke-linejoin="round"/>
</g>
<g opacity="0.15">
<path d="M51.7666 52.0264H77.7254" stroke="#0964AF" stroke-width="0.810806" stroke-linecap="round" stroke-linejoin="round"/>
<path d="M51.7666 50H77.7254" stroke="#0964AF" stroke-width="0.810806" stroke-linecap="round" stroke-linejoin="round"/>
<path d="M51.7666 47.9844H77.7254" stroke="#0964AF" stroke-width="0.810806" stroke-linecap="round" stroke-linejoin="round"/>
<path d="M51.7666 54.094H67.4214" stroke="#0964AF" stroke-width="0.810806" stroke-linecap="round" stroke-linejoin="round"/>
</g>
<g opacity="0.15">
<path d="M51.7666 66.8076H77.7254" stroke="#0964AF" stroke-width="0.810806" stroke-linecap="round" stroke-linejoin="round"/>
<path d="M51.7666 64.7812H77.7254" stroke="#0964AF" stroke-width="0.810806" stroke-linecap="round" stroke-linejoin="round"/>
<path d="M51.7666 62.7656H77.7254" stroke="#0964AF" stroke-width="0.810806" stroke-linecap="round" stroke-linejoin="round"/>
<path d="M51.7666 68.8752H67.4214" stroke="#0964AF" stroke-width="0.810806" stroke-linecap="round" stroke-linejoin="round"/>
</g>
<g opacity="0.15">
<path d="M51.7666 81.5889H77.7254" stroke="#0964AF" stroke-width="0.810806" stroke-linecap="round" stroke-linejoin="round"/>
<path d="M51.7666 79.5625H77.7254" stroke="#0964AF" stroke-width="0.810806" stroke-linecap="round" stroke-linejoin="round"/>
<path d="M51.7666 77.5469H77.7254" stroke="#0964AF" stroke-width="0.810806" stroke-linecap="round" stroke-linejoin="round"/>
<path d="M51.7666 83.6565H67.4214" stroke="#0964AF" stroke-width="0.810806" stroke-linecap="round" stroke-linejoin="round"/>
</g>
<path d="M48.8839 33.1619H44.0321C43.7307 33.1619 43.4863 33.4062 43.4863 33.7076V38.5594C43.4863 38.8608 43.7307 39.1052 44.0321 39.1052H48.8839C49.1853 39.1052 49.4296 38.8608 49.4296 38.5594V33.7076C49.4296 33.4062 49.1853 33.1619 48.8839 33.1619Z" stroke="#2396B5" stroke-width="0.301453" stroke-miterlimit="10"/>
<path d="M48.8839 47.9722H44.0321C43.7307 47.9722 43.4863 48.2165 43.4863 48.5179V53.3697C43.4863 53.6711 43.7307 53.9155 44.0321 53.9155H48.8839C49.1853 53.9155 49.4296 53.6711 49.4296 53.3697V48.5179C49.4296 48.2165 49.1853 47.9722 48.8839 47.9722Z" stroke="#2396B5" stroke-width="0.301453" stroke-miterlimit="10"/>
<path d="M48.8839 62.7793H44.0321C43.7307 62.7793 43.4863 63.0236 43.4863 63.325V68.1769C43.4863 68.4783 43.7307 68.7226 44.0321 68.7226H48.8839C49.1853 68.7226 49.4296 68.4783 49.4296 68.1769V63.325C49.4296 63.0236 49.1853 62.7793 48.8839 62.7793Z" stroke="#2396B5" stroke-width="0.301453" stroke-miterlimit="10"/>
<path d="M48.8839 77.5896H44.0321C43.7307 77.5896 43.4863 77.8339 43.4863 78.1353V82.9872C43.4863 83.2886 43.7307 83.5329 44.0321 83.5329H48.8839C49.1853 83.5329 49.4296 83.2886 49.4296 82.9872V78.1353C49.4296 77.8339 49.1853 77.5896 48.8839 77.5896Z" stroke="#2396B5" stroke-width="0.301453" stroke-miterlimit="10"/>
<path d="M24.8916 63.3772C26.1077 63.013 27.0724 62.0862 27.4816 60.8889L27.5288 60.7507C27.891 62.0225 28.8891 63.0165 30.1661 63.3772C28.8891 63.7379 27.891 64.7319 27.5288 66.0037L27.4816 65.8655C27.0724 64.6682 26.1077 63.7414 24.8916 63.3772Z" fill="#F88B76"/>
<path d="M90.7354 68.0042C93.1613 67.2776 95.0856 65.4288 95.9019 63.0404L95.9962 62.7647C96.7187 65.3017 98.7096 67.2845 101.257 68.0042C98.7096 68.7238 96.7187 70.7066 95.9962 73.2436L95.9019 72.9679C95.0856 70.5795 93.1613 68.7307 90.7354 68.0042Z" fill="#F88B76"/>
<path d="M111.294 6.86571L102.685 1.89544C99.7831 0.219985 96.3344 -0.234044 93.0977 0.633236C89.8609 1.50052 87.1013 3.61806 85.4258 6.52004C83.7504 9.42201 83.2964 12.8707 84.1636 16.1074C85.0309 19.3442 87.1485 22.1038 90.0504 23.7793L94.2151 26.1837L90.6862 30.6554L100.079 29.4348C102.915 30.628 106.088 30.7459 109.004 29.7662C111.92 28.7866 114.378 26.7767 115.918 24.1136C117.59 21.2127 118.042 17.7667 117.175 14.5327C116.308 11.2987 114.193 8.54116 111.294 6.86571Z" fill="#FDE0D1" fill-opacity="0.25"/>
<path d="M105.171 7.71707C105.833 8.09724 106.461 8.53471 107.046 9.02447C107.586 9.46713 108.049 9.99536 108.417 10.5881C108.753 11.1327 108.949 11.7521 108.986 12.3909C109.005 13.1045 108.812 13.8078 108.432 14.412C108.177 14.8765 107.839 15.2899 107.434 15.6314C107.085 15.9149 106.687 16.1311 106.26 16.2689C105.832 16.4048 105.389 16.4839 104.941 16.5041C104.478 16.5286 103.998 16.532 103.511 16.5158C103.161 16.5093 102.808 16.5056 102.454 16.5046C102.115 16.5016 101.777 16.5317 101.444 16.5946C101.128 16.6572 100.826 16.7753 100.551 16.9434C100.259 17.1316 100.018 17.3903 99.8518 17.6956L98.6027 16.9745C98.5526 16.6582 98.5632 16.3352 98.6337 16.0228C98.7001 15.738 98.808 15.4645 98.9541 15.2112C99.1932 14.7657 99.5539 14.3971 99.9942 14.1485C100.406 13.9309 100.829 13.7362 101.262 13.5654C101.709 13.3866 102.143 13.1745 102.558 12.9308C103.043 12.6209 103.439 12.1896 103.707 11.6795C103.866 11.4197 103.955 11.1227 103.964 10.818C103.967 10.5456 103.912 10.2756 103.804 10.0255C103.697 9.77605 103.544 9.54824 103.355 9.35328C103.173 9.163 102.966 8.99875 102.739 8.86521C102.194 8.55031 101.769 8.37965 101.464 8.35322C101.181 8.32763 100.896 8.32773 100.613 8.35353C100.76 8.46046 100.883 8.59614 100.976 8.75232C101.069 8.90849 101.129 9.0819 101.152 9.26198C101.237 9.70524 101.152 10.1641 100.915 10.5479C100.655 11.0269 100.219 11.3854 99.6983 11.5469C99.18 11.71 98.6347 11.6242 98.0641 11.2947C97.4934 10.9652 97.179 10.5457 97.0873 10.0125C97.0087 9.44548 97.1354 8.86904 97.4444 8.38716C97.7211 7.9176 98.0956 7.51301 98.5423 7.20077C99.0477 6.84535 99.6283 6.61138 100.239 6.51709C100.979 6.40467 101.733 6.4343 102.462 6.60439C103.417 6.83179 104.331 7.20722 105.171 7.71707ZM95.2633 19.6252C95.4211 19.3545 95.6333 19.1194 95.8864 18.9346C96.132 18.7517 96.4114 18.6193 96.7084 18.545C97.0117 18.4718 97.3259 18.4546 97.6354 18.4944C97.9491 18.5345 98.2516 18.6373 98.5247 18.7969C98.7966 18.9511 99.0337 19.1598 99.2211 19.41C99.402 19.6543 99.5357 19.9302 99.6156 20.2235C99.6884 20.5157 99.7059 20.8189 99.6673 21.1175C99.63 21.4278 99.529 21.7271 99.3707 21.9967C99.2139 22.2714 99.0034 22.5117 98.7518 22.7032C98.504 22.8931 98.2232 23.0353 97.9237 23.1229C97.6293 23.2071 97.3211 23.2321 97.017 23.1965C96.7097 23.1582 96.4135 23.0574 96.1465 22.9004C95.872 22.743 95.6321 22.532 95.4409 22.2798C95.058 21.778 94.8885 21.1454 94.9692 20.5194C95.0061 20.2046 95.1061 19.9005 95.2633 19.6252Z" fill="#E91E21"/>
</svg>
