<svg width="115" height="42" viewBox="0 0 115 42" fill="none" xmlns="http://www.w3.org/2000/svg">
<path d="M10.1754 0.162717H0.635153C0.443871 0.162717 0.290454 0.305149 0.277484 0.495991C0.163796 2.16879 -0.298809 9.76775 0.301032 14.7914C0.636503 17.601 0.795577 19.2046 1.58104 21.9229C2.00109 23.3766 2.25624 24.1931 2.86105 25.5801C3.57634 27.2205 4.68924 29.2368 5.05536 29.603C5.42148 29.9692 10.0606 28.9774 13.1011 27.9573C15.0125 27.316 16.0927 26.924 17.8555 25.9458C19.2063 25.1963 21.1473 23.9349 21.1469 23.7515C21.1465 23.5682 14.5644 22.2891 13.1015 21.7406C11.1892 21.0234 9.62723 19.7291 8.8954 18.8143C8.16356 17.8995 7.06721 15.5234 6.88435 14.7919C6.70149 14.0605 6.70149 6.92899 6.70109 6.56278C6.7009 6.38699 8.35824 8.86749 10.7244 11.3176C13.2876 13.9717 17.1244 16.62 17.8555 16.62C18.5865 16.62 22.4242 13.972 24.9874 11.3176C27.3533 8.8675 28.8272 6.57035 28.8274 6.74613C28.8278 7.11235 28.8274 11.6833 28.4613 14.7914C28.2684 16.4287 27.8229 17.2957 27.1813 18.8143C26.4848 20.4628 26.0524 21.3994 24.987 22.8372C24.1146 24.0144 23.5189 24.6031 22.4269 25.5801C20.8181 27.0197 19.773 27.6966 17.8555 28.6887C16.0887 29.6028 15.0136 29.9698 13.1011 30.5173C10.46 31.2733 6.15251 31.6144 6.15251 31.6144L7.79824 33.8087L9.80969 36.003L13.1011 38.7459L17.8555 41.8545L22.4269 38.7459L25.5355 36.003L27.547 33.8087L29.7413 30.883L31.9356 27.2258L33.7642 22.8372L34.6785 18.8143L35.2271 14.7914L35.4055 0.518756C35.4079 0.3206 35.2564 0.156764 35.0583 0.149539C33.3531 0.0873313 25.9989 -0.160731 25.3527 0.162717C24.6213 0.52883 20.9641 7.84329 17.673 7.84329C14.382 7.84329 10.724 0.162717 10.1754 0.162717Z" fill="#FEFEFE" fill-opacity="0.1"/>
<path d="M22.4274 0.164062H13.1016C13.1016 0.164062 15.5853 5.10125 17.8559 5.10125C20.1265 5.10125 22.4274 0.164062 22.4274 0.164062Z" fill="#FEFEFE" fill-opacity="0.1"/>
<path d="M52.2939 0H42.3973C42.2399 0 42.156 0.18577 42.2602 0.303842L44.6594 3.02291C44.7056 3.07534 44.718 3.14956 44.6911 3.21412L36.2459 23.5186C36.1958 23.639 36.2843 23.7716 36.4147 23.7716H42.9649C43.04 23.7716 43.1074 23.7258 43.135 23.656L49.1364 8.47592C49.1974 8.32174 49.4156 8.32174 49.4765 8.47592L55.4779 23.656C55.5055 23.7258 55.573 23.7716 55.648 23.7716H62.1964C62.3273 23.7716 62.4158 23.6381 62.3648 23.5175L52.4623 0.11161C52.4337 0.0439575 52.3673 0 52.2939 0Z" fill="#FEFEFE" fill-opacity="0.1"/>
<path d="M104.226 0H94.329C94.1715 0 94.0877 0.18577 94.1918 0.303842L96.591 3.02291C96.6373 3.07534 96.6496 3.14956 96.6227 3.21412L88.1775 23.5186C88.1274 23.639 88.2159 23.7716 88.3464 23.7716H94.8966C94.9716 23.7716 95.039 23.7258 95.0666 23.656L101.068 8.47592C101.129 8.32174 101.347 8.32174 101.408 8.47592L107.41 23.656C107.437 23.7258 107.505 23.7716 107.58 23.7716H114.128C114.259 23.7716 114.347 23.6381 114.296 23.5175L104.394 0.11161C104.365 0.0439575 104.299 0 104.226 0Z" fill="#FEFEFE" fill-opacity="0.1"/>
<path d="M70.8852 0H64.8508C64.7498 0 64.668 0.0818688 64.668 0.182859V23.4059C64.668 23.5069 64.7498 23.5888 64.8508 23.5888H70.8852C70.9862 23.5888 71.068 23.5069 71.068 23.4059V14.8116C71.068 14.7106 71.1499 14.6287 71.2509 14.6287H79.3357C79.4367 14.6287 79.5186 14.7106 79.5186 14.8116V23.4059C79.5186 23.5069 79.6004 23.5888 79.7014 23.5888H85.6967C85.7977 23.5888 85.8796 23.5069 85.8796 23.4059V0.182859C85.8796 0.0818687 85.7977 0 85.6967 0H79.7014C79.6004 0 79.5186 0.0818683 79.5186 0.182858V8.65392C79.5186 8.75491 79.4367 8.83678 79.3357 8.83678H71.2509C71.1499 8.83678 71.068 8.75491 71.068 8.65392V0.182859C71.068 0.0818687 70.9862 0 70.8852 0Z" fill="#FEFEFE" fill-opacity="0.1"/>
<path d="M40.5682 27.183C40.5682 27.4895 40.4749 27.7477 40.2885 27.9577C40.1021 28.1656 39.8364 28.3027 39.4914 28.3691V28.382C39.7528 28.4227 39.9574 28.5266 40.1053 28.6938C40.2553 28.8609 40.3303 29.0688 40.3303 29.3174C40.3303 29.7631 40.1664 30.1177 39.8385 30.3813C39.5106 30.6427 39.0617 30.7734 38.4917 30.7734H36.8717L37.8488 26.1641H39.3017C39.6981 26.1641 40.0078 26.2541 40.2307 26.4341C40.4557 26.612 40.5682 26.8616 40.5682 27.183ZM39.7356 27.3373C39.7356 27.1573 39.6778 27.0213 39.5621 26.9291C39.4464 26.837 39.2814 26.7909 39.0671 26.7909H38.5174L38.2378 28.0831H38.7842C39.0842 28.0831 39.3178 28.0177 39.4849 27.887C39.6521 27.7541 39.7356 27.5709 39.7356 27.3373ZM39.4946 29.3399C39.4946 29.147 39.4271 28.9938 39.2921 28.8802C39.1592 28.7666 38.9567 28.7098 38.6846 28.7098H38.106L37.8038 30.1466H38.466C38.8003 30.1466 39.0553 30.077 39.231 29.9377C39.4067 29.7963 39.4946 29.597 39.4946 29.3399ZM44.0194 28.292C44.0194 28.6884 43.8351 28.9809 43.4666 29.1695C43.098 29.3559 42.5387 29.4534 41.7887 29.462L41.7823 29.4974V29.5616C41.7823 29.7845 41.8487 29.9581 41.9816 30.0824C42.1144 30.2045 42.2998 30.2656 42.5376 30.2656C42.7005 30.2656 42.8741 30.2366 43.0584 30.1788C43.2448 30.1188 43.4151 30.0427 43.5694 29.9506L43.4409 30.5902C43.1173 30.7659 42.7605 30.8538 42.3705 30.8538C41.9441 30.8538 41.6108 30.7349 41.3708 30.497C41.133 30.2591 41.014 29.9238 41.014 29.4909C41.014 29.1181 41.0955 28.7698 41.2583 28.4463C41.4212 28.1206 41.6483 27.8656 41.9398 27.6813C42.2312 27.4948 42.5505 27.4016 42.8976 27.4016C43.2426 27.4016 43.5159 27.4831 43.7173 27.6459C43.9187 27.8088 44.0194 28.0241 44.0194 28.292ZM43.2673 28.3113C43.2673 28.2041 43.2276 28.1195 43.1484 28.0573C43.0712 27.9931 42.9641 27.9609 42.8269 27.9609C42.5998 27.9609 42.3941 28.0541 42.2098 28.2406C42.0255 28.427 41.9044 28.6563 41.8466 28.9284C42.7937 28.9284 43.2673 28.7227 43.2673 28.3113ZM50.4913 27.1252C50.3327 27.0159 50.142 26.9291 49.9191 26.8648C49.6984 26.7984 49.4691 26.7652 49.2312 26.7652C48.8584 26.7652 48.5284 26.8488 48.2412 27.0159C47.9562 27.1809 47.7355 27.4145 47.5791 27.7166C47.4248 28.0188 47.3477 28.3648 47.3477 28.7548C47.3477 29.1963 47.4655 29.5445 47.7012 29.7995C47.9391 30.0545 48.2627 30.182 48.672 30.182C48.9034 30.182 49.1187 30.1456 49.318 30.0727L49.5559 28.9348H48.553L48.6945 28.2791H50.4913L50.0155 30.5099C49.5741 30.7413 49.092 30.857 48.5691 30.857C48.1577 30.857 47.7955 30.7724 47.4827 30.6031C47.1719 30.4316 46.933 30.1906 46.7659 29.8799C46.6009 29.567 46.5184 29.2102 46.5184 28.8095C46.5184 28.2845 46.6319 27.8131 46.8591 27.3952C47.0862 26.9773 47.4077 26.6548 47.8234 26.4277C48.2412 26.2005 48.7298 26.087 49.2891 26.087C49.7498 26.087 50.202 26.1813 50.6455 26.3698L50.4913 27.1252ZM53.38 28.2309C53.2493 28.1623 53.1229 28.1281 53.0007 28.1281C52.7779 28.1281 52.5743 28.2406 52.39 28.4656C52.2079 28.6906 52.0772 28.9906 51.9979 29.3656L51.6989 30.7734H50.9211L51.3775 28.6327C51.4868 28.0991 51.5511 27.7156 51.5704 27.482H52.3354C52.3139 27.6898 52.2839 27.9213 52.2454 28.1763H52.2582C52.3932 27.932 52.5347 27.7423 52.6825 27.6073C52.8325 27.4702 53.0072 27.4016 53.2065 27.4016C53.2879 27.4016 53.3961 27.4177 53.5311 27.4498L53.38 28.2309ZM56.6288 28.292C56.6288 28.6884 56.4445 28.9809 56.0759 29.1695C55.7074 29.3559 55.1481 29.4534 54.3981 29.462L54.3916 29.4974V29.5616C54.3916 29.7845 54.4581 29.9581 54.5909 30.0824C54.7238 30.2045 54.9091 30.2656 55.147 30.2656C55.3099 30.2656 55.4834 30.2366 55.6677 30.1788C55.8542 30.1188 56.0245 30.0427 56.1788 29.9506L56.0502 30.5902C55.7266 30.7659 55.3699 30.8538 54.9799 30.8538C54.5534 30.8538 54.2202 30.7349 53.9802 30.497C53.7423 30.2591 53.6234 29.9238 53.6234 29.4909C53.6234 29.1181 53.7048 28.7698 53.8677 28.4463C54.0306 28.1206 54.2577 27.8656 54.5491 27.6813C54.8406 27.4948 55.1599 27.4016 55.507 27.4016C55.852 27.4016 56.1252 27.4831 56.3267 27.6459C56.5281 27.8088 56.6288 28.0241 56.6288 28.292ZM55.8767 28.3113C55.8767 28.2041 55.837 28.1195 55.7577 28.0573C55.6806 27.9931 55.5734 27.9609 55.4363 27.9609C55.2091 27.9609 55.0034 28.0541 54.8191 28.2406C54.6349 28.427 54.5138 28.6563 54.4559 28.9284C55.4031 28.9284 55.8767 28.7227 55.8767 28.3113ZM59.8229 30.7734H59.0354C59.0354 30.7199 59.0419 30.6224 59.0547 30.4809C59.0676 30.3374 59.0804 30.227 59.0933 30.1499H59.0804C58.9454 30.347 58.8286 30.4906 58.7301 30.5806C58.6336 30.6684 58.5286 30.7359 58.4151 30.7831C58.3015 30.8302 58.1729 30.8538 58.0293 30.8538C57.7165 30.8538 57.4733 30.7434 57.2997 30.5227C57.1261 30.302 57.0393 29.9966 57.0393 29.6066C57.0393 29.2081 57.1325 28.8288 57.319 28.4688C57.5076 28.1088 57.7583 27.8409 58.0711 27.6652C58.3861 27.4895 58.7526 27.4016 59.1704 27.4016C59.5154 27.4016 59.9258 27.4531 60.4015 27.5559L59.9483 29.7031C59.9161 29.8552 59.8872 30.0427 59.8615 30.2656C59.8358 30.4863 59.8229 30.6556 59.8229 30.7734ZM59.5272 28.0316C59.3944 27.9995 59.2476 27.9834 59.0869 27.9834C58.8426 27.9834 58.6272 28.0477 58.4408 28.1763C58.2543 28.3027 58.1043 28.4956 57.9908 28.7548C57.8772 29.0141 57.8204 29.2852 57.8204 29.5681C57.8204 29.7824 57.8611 29.9484 57.9426 30.0663C58.0261 30.182 58.1472 30.2399 58.3058 30.2399C58.5372 30.2399 58.7451 30.1188 58.9293 29.8766C59.1158 29.6345 59.2519 29.3141 59.3376 28.9156L59.5272 28.0316ZM63.0074 28.0798H62.207L61.892 29.5681C61.8535 29.7545 61.8342 29.8799 61.8342 29.9441C61.8342 30.0427 61.8567 30.1145 61.9017 30.1595C61.9467 30.2024 62.0206 30.2238 62.1235 30.2238C62.222 30.2238 62.3721 30.1852 62.5735 30.1081L62.4449 30.7156C62.2306 30.7992 62.0185 30.8409 61.8085 30.8409C61.3006 30.8409 61.0467 30.5934 61.0467 30.0984C61.0467 29.9741 61.0692 29.8113 61.1142 29.6099L61.4356 28.0798H60.9085L61.0499 27.482H61.561L61.7313 26.6945L62.5478 26.4791L62.3388 27.482H63.1456L63.0074 28.0798ZM69.4921 28.3273C69.3528 28.9231 69.0582 29.4502 68.6082 29.9088L69.2446 30.7734H68.3639L68.0585 30.3556C67.6171 30.6899 67.1146 30.857 66.551 30.857C66.2681 30.857 66.0249 30.8067 65.8214 30.7059C65.6178 30.6031 65.4635 30.4616 65.3585 30.2816C65.2535 30.1016 65.201 29.9002 65.201 29.6774C65.201 29.3516 65.3049 29.072 65.5128 28.8384C65.7206 28.6027 66.0646 28.3906 66.5446 28.202C66.3367 27.8891 66.2328 27.5816 66.2328 27.2795C66.2328 27.0588 66.2885 26.8573 66.3999 26.6752C66.5114 26.493 66.671 26.3495 66.8789 26.2445C67.0867 26.1395 67.3257 26.087 67.5957 26.087C67.8335 26.087 68.0414 26.1288 68.2192 26.2123C68.3992 26.2959 68.5364 26.4127 68.6307 26.5627C68.7271 26.7105 68.7753 26.8777 68.7753 27.0641C68.7753 27.3448 68.6735 27.5881 68.47 27.7938C68.2664 27.9973 67.9449 28.1859 67.5057 28.3595L68.2642 29.4074C68.5257 29.1009 68.7035 28.7409 68.7978 28.3273H69.4921ZM68.0649 27.1091C68.0649 26.9698 68.0199 26.8584 67.9299 26.7748C67.8399 26.6891 67.7178 26.6463 67.5635 26.6463C67.3814 26.6463 67.2324 26.702 67.1167 26.8134C67.0032 26.9248 66.9464 27.0705 66.9464 27.2505C66.9464 27.4713 67.0289 27.6963 67.1939 27.9256C67.5346 27.782 67.7649 27.6502 67.8849 27.5302C68.0049 27.4102 68.0649 27.2698 68.0649 27.1091ZM67.7339 29.8895L67.4799 29.5424L66.8435 28.652C66.5328 28.7806 66.3078 28.9188 66.1685 29.0666C66.0292 29.2145 65.9596 29.3902 65.9596 29.5938C65.9596 29.7952 66.0249 29.9591 66.1556 30.0856C66.2885 30.2099 66.4631 30.272 66.6796 30.272C67.0589 30.272 67.4103 30.1445 67.7339 29.8895ZM75.6232 27.183C75.6232 27.4895 75.53 27.7477 75.3436 27.9577C75.1571 28.1656 74.8914 28.3027 74.5464 28.3691V28.382C74.8078 28.4227 75.0125 28.5266 75.1604 28.6938C75.3104 28.8609 75.3854 29.0688 75.3854 29.3174C75.3854 29.7631 75.2214 30.1177 74.8936 30.3813C74.5657 30.6427 74.1168 30.7734 73.5468 30.7734H71.9268L72.9039 26.1641H74.3568C74.7532 26.1641 75.0629 26.2541 75.2857 26.4341C75.5107 26.612 75.6232 26.8616 75.6232 27.183ZM74.7907 27.3373C74.7907 27.1573 74.7328 27.0213 74.6171 26.9291C74.5014 26.837 74.3364 26.7909 74.1221 26.7909H73.5725L73.2928 28.0831H73.8393C74.1393 28.0831 74.3728 28.0177 74.54 27.887C74.7071 27.7541 74.7907 27.5709 74.7907 27.3373ZM74.5496 29.3399C74.5496 29.147 74.4821 28.9938 74.3471 28.8802C74.2143 28.7666 74.0118 28.7098 73.7396 28.7098H73.161L72.8589 30.1466H73.5211C73.8553 30.1466 74.1103 30.077 74.2861 29.9377C74.4618 29.7963 74.5496 29.597 74.5496 29.3399ZM79.0745 28.292C79.0745 28.6884 78.8902 28.9809 78.5216 29.1695C78.1531 29.3559 77.5938 29.4534 76.8438 29.462L76.8373 29.4974V29.5616C76.8373 29.7845 76.9038 29.9581 77.0366 30.0824C77.1695 30.2045 77.3548 30.2656 77.5927 30.2656C77.7555 30.2656 77.9291 30.2366 78.1134 30.1788C78.2998 30.1188 78.4702 30.0427 78.6245 29.9506L78.4959 30.5902C78.1723 30.7659 77.8155 30.8538 77.4255 30.8538C76.9991 30.8538 76.6659 30.7349 76.4259 30.497C76.188 30.2591 76.0691 29.9238 76.0691 29.4909C76.0691 29.1181 76.1505 28.7698 76.3134 28.4463C76.4763 28.1206 76.7034 27.8656 76.9948 27.6813C77.2863 27.4948 77.6055 27.4016 77.9527 27.4016C78.2977 27.4016 78.5709 27.4831 78.7723 27.6459C78.9738 27.8088 79.0745 28.0241 79.0745 28.292ZM78.3223 28.3113C78.3223 28.2041 78.2827 28.1195 78.2034 28.0573C78.1263 27.9931 78.0191 27.9609 77.882 27.9609C77.6548 27.9609 77.4491 28.0541 77.2648 28.2406C77.0805 28.427 76.9595 28.6563 76.9016 28.9284C77.8488 28.9284 78.3223 28.7227 78.3223 28.3113ZM82.1713 30.7734H81.3709L82.3449 26.1641H83.1484L82.1713 30.7734ZM86.7251 28.2856C86.7251 28.3948 86.6919 28.607 86.6254 28.922L86.2333 30.7734H85.4554L85.854 28.8706C85.8968 28.6413 85.9183 28.5009 85.9183 28.4495C85.9183 28.3209 85.884 28.217 85.8154 28.1377C85.749 28.0563 85.6536 28.0156 85.5293 28.0156C85.3922 28.0156 85.2454 28.0702 85.089 28.1795C84.9347 28.2866 84.7976 28.4313 84.6776 28.6134C84.5575 28.7956 84.4783 28.9766 84.4397 29.1566L84.0958 30.7734H83.3115L83.8097 28.472C83.8868 28.1034 83.9436 27.7734 83.98 27.482H84.7386C84.7215 27.6641 84.6883 27.8998 84.639 28.1891H84.6518C84.8233 27.9384 85.0183 27.7445 85.2368 27.6073C85.4576 27.4702 85.6761 27.4016 85.8926 27.4016C86.1583 27.4016 86.3629 27.4777 86.5065 27.6298C86.6522 27.782 86.7251 28.0006 86.7251 28.2856ZM89.4692 28.0798H88.6688L88.3538 29.5681C88.3153 29.7545 88.296 29.8799 88.296 29.9441C88.296 30.0427 88.3185 30.1145 88.3635 30.1595C88.4085 30.2024 88.4824 30.2238 88.5853 30.2238C88.6838 30.2238 88.8338 30.1852 89.0353 30.1081L88.9067 30.7156C88.6924 30.7992 88.4803 30.8409 88.2703 30.8409C87.7624 30.8409 87.5085 30.5934 87.5085 30.0984C87.5085 29.9741 87.531 29.8113 87.576 29.6099L87.8974 28.0798H87.3702L87.5117 27.482H88.0228L88.1931 26.6945L89.0095 26.4791L88.8006 27.482H89.6074L89.4692 28.0798ZM92.7405 28.292C92.7405 28.6884 92.5562 28.9809 92.1876 29.1695C91.819 29.3559 91.2597 29.4534 90.5097 29.462L90.5033 29.4974V29.5616C90.5033 29.7845 90.5697 29.9581 90.7026 30.0824C90.8354 30.2045 91.0208 30.2656 91.2587 30.2656C91.4215 30.2656 91.5951 30.2366 91.7794 30.1788C91.9658 30.1188 92.1362 30.0427 92.2905 29.9506L92.1619 30.5902C91.8383 30.7659 91.4815 30.8538 91.0915 30.8538C90.6651 30.8538 90.3319 30.7349 90.0919 30.497C89.854 30.2591 89.7351 29.9238 89.7351 29.4909C89.7351 29.1181 89.8165 28.7698 89.9794 28.4463C90.1422 28.1206 90.3694 27.8656 90.6608 27.6813C90.9522 27.4948 91.2715 27.4016 91.6187 27.4016C91.9637 27.4016 92.2369 27.4831 92.4383 27.6459C92.6398 27.8088 92.7405 28.0241 92.7405 28.292ZM91.9883 28.3113C91.9883 28.2041 91.9487 28.1195 91.8694 28.0573C91.7922 27.9931 91.6851 27.9609 91.548 27.9609C91.3208 27.9609 91.1151 28.0541 90.9308 28.2406C90.7465 28.427 90.6254 28.6563 90.5676 28.9284C91.5147 28.9284 91.9883 28.7227 91.9883 28.3113ZM93.8389 32.3195C93.4853 32.3195 93.1456 32.2381 92.8199 32.0752L92.9581 31.4195C93.2646 31.6188 93.5774 31.7184 93.8967 31.7184C94.2289 31.7184 94.4924 31.6274 94.6874 31.4452C94.8824 31.2631 95.0217 30.9706 95.1053 30.5677L95.1889 30.1659H95.176C95.0153 30.4166 94.8524 30.5945 94.6874 30.6995C94.5246 30.8024 94.3435 30.8538 94.1442 30.8538C93.8356 30.8538 93.5924 30.7467 93.4146 30.5324C93.2389 30.3159 93.151 30.0106 93.151 29.6163C93.151 29.2091 93.2399 28.8331 93.4178 28.4881C93.5978 28.1409 93.8431 27.8731 94.1539 27.6845C94.4646 27.4959 94.8171 27.4016 95.2114 27.4016C95.5607 27.4016 95.9946 27.4509 96.5132 27.5495L95.8992 30.4584C95.8007 30.9234 95.6667 31.2845 95.4974 31.5417C95.3282 31.7988 95.1074 31.9927 94.8353 32.1234C94.5653 32.2542 94.2332 32.3195 93.8389 32.3195ZM95.6389 28.0316C95.506 27.9995 95.3432 27.9834 95.1503 27.9834C94.9274 27.9834 94.7217 28.0541 94.5332 28.1956C94.3446 28.337 94.1967 28.5288 94.0896 28.7709C93.9846 29.0131 93.9321 29.2766 93.9321 29.5616C93.9321 29.7824 93.9749 29.9506 94.0606 30.0663C94.1464 30.182 94.2632 30.2399 94.411 30.2399C94.561 30.2399 94.7035 30.1884 94.8385 30.0856C94.9735 29.9827 95.0967 29.8231 95.2082 29.6066C95.3196 29.3902 95.3999 29.1631 95.4492 28.9252L95.6389 28.0316ZM99.328 28.2309C99.1973 28.1623 99.0709 28.1281 98.9487 28.1281C98.7259 28.1281 98.5223 28.2406 98.338 28.4656C98.1559 28.6906 98.0251 28.9906 97.9459 29.3656L97.6469 30.7734H96.8691L97.3255 28.6327C97.4348 28.0991 97.4991 27.7156 97.5184 27.482H98.2834C98.2619 27.6898 98.2319 27.9213 98.1934 28.1763H98.2062C98.3412 27.932 98.4826 27.7423 98.6305 27.6073C98.7805 27.4702 98.9552 27.4016 99.1544 27.4016C99.2359 27.4016 99.3441 27.4177 99.4791 27.4498L99.328 28.2309ZM102.355 30.7734H101.567C101.567 30.7199 101.574 30.6224 101.587 30.4809C101.6 30.3374 101.612 30.227 101.625 30.1499H101.612C101.477 30.347 101.361 30.4906 101.262 30.5806C101.166 30.6684 101.061 30.7359 100.947 30.7831C100.834 30.8302 100.705 30.8538 100.561 30.8538C100.249 30.8538 100.005 30.7434 99.8318 30.5227C99.6582 30.302 99.5714 29.9966 99.5714 29.6066C99.5714 29.2081 99.6646 28.8288 99.851 28.4688C100.04 28.1088 100.29 27.8409 100.603 27.6652C100.918 27.4895 101.285 27.4016 101.702 27.4016C102.047 27.4016 102.458 27.4531 102.934 27.5559L102.48 29.7031C102.448 29.8552 102.419 30.0427 102.394 30.2656C102.368 30.4863 102.355 30.6556 102.355 30.7734ZM102.059 28.0316C101.926 27.9995 101.78 27.9834 101.619 27.9834C101.375 27.9834 101.159 28.0477 100.973 28.1763C100.786 28.3027 100.636 28.4956 100.523 28.7548C100.409 29.0141 100.352 29.2852 100.352 29.5681C100.352 29.7824 100.393 29.9484 100.475 30.0663C100.558 30.182 100.679 30.2399 100.838 30.2399C101.069 30.2399 101.277 30.1188 101.461 29.8766C101.648 29.6345 101.784 29.3141 101.87 28.9156L102.059 28.0316ZM105.539 28.0798H104.739L104.424 29.5681C104.386 29.7545 104.366 29.8799 104.366 29.9441C104.366 30.0427 104.389 30.1145 104.434 30.1595C104.479 30.2024 104.553 30.2238 104.656 30.2238C104.754 30.2238 104.904 30.1852 105.106 30.1081L104.977 30.7156C104.763 30.7992 104.551 30.8409 104.341 30.8409C103.833 30.8409 103.579 30.5934 103.579 30.0984C103.579 29.9741 103.601 29.8113 103.646 29.6099L103.968 28.0798H103.441L103.582 27.482H104.093L104.263 26.6945L105.08 26.4791L104.871 27.482H105.678L105.539 28.0798ZM108.811 28.292C108.811 28.6884 108.626 28.9809 108.258 29.1695C107.889 29.3559 107.33 29.4534 106.58 29.462L106.574 29.4974V29.5616C106.574 29.7845 106.64 29.9581 106.773 30.0824C106.906 30.2045 107.091 30.2656 107.329 30.2656C107.492 30.2656 107.665 30.2366 107.85 30.1788C108.036 30.1188 108.206 30.0427 108.361 29.9506L108.232 30.5902C107.909 30.7659 107.552 30.8538 107.162 30.8538C106.735 30.8538 106.402 30.7349 106.162 30.497C105.924 30.2591 105.805 29.9238 105.805 29.4909C105.805 29.1181 105.887 28.7698 106.05 28.4463C106.213 28.1206 106.44 27.8656 106.731 27.6813C107.023 27.4948 107.342 27.4016 107.689 27.4016C108.034 27.4016 108.307 27.4831 108.509 27.6459C108.71 27.8088 108.811 28.0241 108.811 28.292ZM108.059 28.3113C108.059 28.2041 108.019 28.1195 107.94 28.0573C107.863 27.9931 107.755 27.9609 107.618 27.9609C107.391 27.9609 107.185 28.0541 107.001 28.2406C106.817 28.427 106.696 28.6563 106.638 28.9284C107.585 28.9284 108.059 28.7227 108.059 28.3113ZM112.005 30.7734H111.217C111.217 30.6727 111.237 30.4681 111.275 30.1595H111.262C111.106 30.3995 110.945 30.5752 110.78 30.6867C110.617 30.7981 110.43 30.8538 110.218 30.8538C109.903 30.8538 109.657 30.7456 109.482 30.5291C109.308 30.3106 109.221 30.0041 109.221 29.6099C109.221 29.2091 109.31 28.8352 109.488 28.4881C109.668 28.1388 109.913 27.8709 110.224 27.6845C110.537 27.4959 110.892 27.4016 111.288 27.4016C111.477 27.4016 111.657 27.4209 111.828 27.4595L112.162 25.9005H112.927L112.124 29.7256C112.098 29.8349 112.071 30.0031 112.043 30.2302C112.018 30.4574 112.005 30.6384 112.005 30.7734ZM111.709 28.0413C111.559 28.0027 111.413 27.9834 111.272 27.9834C111.026 27.9834 110.809 28.0477 110.623 28.1763C110.436 28.3048 110.286 28.4988 110.173 28.7581C110.059 29.0152 110.002 29.2831 110.002 29.5616C110.002 29.7845 110.044 29.9538 110.128 30.0695C110.213 30.1831 110.337 30.2399 110.497 30.2399C110.722 30.2399 110.927 30.1188 111.111 29.8766C111.296 29.6345 111.434 29.3056 111.526 28.8898L111.709 28.0413Z" fill="#FEFEFE" fill-opacity="0.1"/>
</svg>
